<?xml version="1.0" encoding="UTF-8"?>
<!DOCTYPE svg PUBLIC "-//W3C//DTD SVG 1.1//EN" "http://www.w3.org/Graphics/SVG/1.1/DTD/svg11.dtd">
<svg xmlns="http://www.w3.org/2000/svg" version="1.1" width="229px" height="246px" style="shape-rendering:geometricPrecision; text-rendering:geometricPrecision; image-rendering:optimizeQuality; fill-rule:evenodd; clip-rule:evenodd" xmlns:xlink="http://www.w3.org/1999/xlink">
<g><path style="opacity:0.467" fill="#cfebdd" d="M 131.5,16.5 C 125.297,5.4026 115.964,1.4026 103.5,4.5C 113.329,-0.0730774 121.829,1.92692 129,10.5C 130.559,12.2166 131.392,14.2166 131.5,16.5 Z"/></g>
<g><path style="opacity:0.075" fill="#ecf8f2" d="M 103.5,4.5 C 103.167,5.16667 102.833,5.83333 102.5,6.5C 101.391,6.55688 100.391,6.89022 99.5,7.5C 100.035,5.55437 101.368,4.55437 103.5,4.5 Z"/></g>
<g><path style="opacity:1" fill="#0dbf65" d="M 131.5,16.5 C 134.351,24.6696 135.017,33.0029 133.5,41.5C 131.797,47.5456 128.463,52.5456 123.5,56.5C 123.045,54.6334 122.378,52.8001 121.5,51C 123.136,47.4681 122.136,46.6348 118.5,48.5C 120.168,46.66 121.668,44.66 123,42.5C 123.333,43.1667 123.667,43.8333 124,44.5C 124.514,41.9718 125.68,39.8051 127.5,38C 126.5,37.5 125.5,37 124.5,36.5C 124.167,34.1667 123.833,31.8333 123.5,29.5C 124.104,25.2698 124.104,21.1031 123.5,17C 125.945,14.9986 125.445,13.4986 122,12.5C 120.601,12.5012 119.101,12.8346 117.5,13.5C 114.277,11.5843 110.943,11.251 107.5,12.5C 106.571,13.6888 106.238,15.0222 106.5,16.5C 106.5,16.8333 106.5,17.1667 106.5,17.5C 105.833,17.8333 105.167,18.1667 104.5,18.5C 102.616,18.7118 101.283,19.7118 100.5,21.5C 99.0542,20.8291 98.3875,19.6624 98.5,18C 100.518,14.4185 101.851,10.5852 102.5,6.5C 102.833,5.83333 103.167,5.16667 103.5,4.5C 115.964,1.4026 125.297,5.4026 131.5,16.5 Z"/></g>
<g><path style="opacity:0.22" fill="#ddf0e6" d="M 99.5,7.5 C 99.1667,8.5 98.5,9.16667 97.5,9.5C 97.5,8.16667 98.1667,7.5 99.5,7.5 Z"/></g>
<g><path style="opacity:0.161" fill="#e7f7ef" d="M 97.5,9.5 C 97.1667,10.5 96.5,11.1667 95.5,11.5C 95.5,10.1667 96.1667,9.5 97.5,9.5 Z"/></g>
<g><path style="opacity:1" fill="#1cc070" d="M 102.5,6.5 C 101.851,10.5852 100.518,14.4185 98.5,18C 98.3875,19.6624 99.0542,20.8291 100.5,21.5C 101.283,19.7118 102.616,18.7118 104.5,18.5C 101.052,25.8211 100.719,33.1544 103.5,40.5C 103.688,43.2061 104.688,45.5395 106.5,47.5C 105.178,47.67 104.011,47.3366 103,46.5C 100.416,40.1499 99.0823,33.4833 99,26.5C 97.3903,26.8696 95.8903,26.2029 94.5,24.5C 91.9293,30.3121 91.9293,36.1454 94.5,42C 93.1854,43.3946 93.5188,44.3946 95.5,45C 95.1667,45.3333 94.8333,45.6667 94.5,46C 95.8613,47.5843 96.528,49.4176 96.5,51.5C 95.1154,50.4264 93.9487,49.0931 93,47.5C 91.6409,43.5948 90.8076,39.5948 90.5,35.5C 90.5,32.8333 90.5,30.1667 90.5,27.5C 90.5172,25.4352 90.8505,23.4352 91.5,21.5C 92.5375,20.0697 93.2041,18.403 93.5,16.5C 94.4408,14.9505 95.1075,13.2838 95.5,11.5C 96.5,11.1667 97.1667,10.5 97.5,9.5C 98.5,9.16667 99.1667,8.5 99.5,7.5C 100.391,6.89022 101.391,6.55688 102.5,6.5 Z"/></g>
<g><path style="opacity:1" fill="#2cc173" d="M 118.5,48.5 C 117.493,49.8284 116.16,50.8284 114.5,51.5C 112.5,50.1667 110.5,50.1667 108.5,51.5C 107.295,50.4231 106.628,49.0898 106.5,47.5C 106.833,47.5 107.167,47.5 107.5,47.5C 109.284,47.8925 110.95,48.5592 112.5,49.5C 114.933,49.7271 116.599,48.7271 117.5,46.5C 118.906,46.0269 119.573,45.0269 119.5,43.5C 121.074,41.8984 121.741,39.8984 121.5,37.5C 122.647,33.3537 122.814,29.0204 122,24.5C 121.8,22.6803 120.966,21.347 119.5,20.5C 117.628,15.5632 114.295,13.8965 109.5,15.5C 108.391,15.5569 107.391,15.8902 106.5,16.5C 106.238,15.0222 106.571,13.6888 107.5,12.5C 110.943,11.251 114.277,11.5843 117.5,13.5C 119.101,12.8346 120.601,12.5012 122,12.5C 125.445,13.4986 125.945,14.9986 123.5,17C 124.104,21.1031 124.104,25.2698 123.5,29.5C 123.833,31.8333 124.167,34.1667 124.5,36.5C 125.5,37 126.5,37.5 127.5,38C 125.68,39.8051 124.514,41.9718 124,44.5C 123.667,43.8333 123.333,43.1667 123,42.5C 121.668,44.66 120.168,46.66 118.5,48.5 Z"/></g>
<g><path style="opacity:0.188" fill="#d6efe4" d="M 95.5,11.5 C 95.1075,13.2838 94.4408,14.9505 93.5,16.5C 93.1667,16.5 92.8333,16.5 92.5,16.5C 92.7497,14.326 93.7497,12.6594 95.5,11.5 Z"/></g>
<g><path style="opacity:0.004" fill="#eaf7f1" d="M 109.5,15.5 C 109.027,16.9063 108.027,17.573 106.5,17.5C 106.5,17.1667 106.5,16.8333 106.5,16.5C 107.391,15.8902 108.391,15.5569 109.5,15.5 Z"/></g>
<g><path style="opacity:0.02" fill="#e4f5ee" d="M 109.5,15.5 C 114.295,13.8965 117.628,15.5632 119.5,20.5C 116.967,17.3173 113.634,15.6506 109.5,15.5 Z"/></g>
<g><path style="opacity:0.8" fill="#8edab5" d="M 92.5,16.5 C 92.8333,16.5 93.1667,16.5 93.5,16.5C 93.2041,18.403 92.5375,20.0697 91.5,21.5C 91.5,20.8333 91.5,20.1667 91.5,19.5C 91.2627,18.209 91.596,17.209 92.5,16.5 Z"/></g>
<g><path style="opacity:0.078" fill="#e6f6ee" d="M 106.5,17.5 C 102.992,24.8743 101.992,32.5409 103.5,40.5C 100.719,33.1544 101.052,25.8211 104.5,18.5C 105.167,18.1667 105.833,17.8333 106.5,17.5 Z"/></g>
<g><path style="opacity:0.004" fill="#fefffe" d="M 5.5,24.5 C 6.83333,25.1667 6.83333,25.1667 5.5,24.5 Z"/></g>
<g><path style="opacity:0.251" fill="#d2efe3" d="M 91.5,19.5 C 91.5,20.1667 91.5,20.8333 91.5,21.5C 90.8505,23.4352 90.5172,25.4352 90.5,27.5C 90.1667,27.5 89.8333,27.5 89.5,27.5C 89.1107,24.4467 89.7773,21.78 91.5,19.5 Z"/></g>
<g><path style="opacity:0.714" fill="#abe4c9" d="M 89.5,27.5 C 89.8333,27.5 90.1667,27.5 90.5,27.5C 90.5,30.1667 90.5,32.8333 90.5,35.5C 90.1667,35.5 89.8333,35.5 89.5,35.5C 88.1667,32.8333 88.1667,30.1667 89.5,27.5 Z"/></g>
<g><path style="opacity:0.106" fill="#d2efe2" d="M 119.5,20.5 C 120.966,21.347 121.8,22.6803 122,24.5C 122.814,29.0204 122.647,33.3537 121.5,37.5C 121.876,31.6648 121.21,25.9981 119.5,20.5 Z"/></g>
<g><path style="opacity:0.108" fill="#e4f6ee" d="M 131.5,16.5 C 132.117,16.6107 132.617,16.944 133,17.5C 135.301,25.0195 135.968,32.6862 135,40.5C 134.617,41.056 134.117,41.3893 133.5,41.5C 135.017,33.0029 134.351,24.6696 131.5,16.5 Z"/></g>
<g><path style="opacity:0.018" fill="#ddf3e9" d="M 89.5,35.5 C 89.8333,35.5 90.1667,35.5 90.5,35.5C 90.8076,39.5948 91.6409,43.5948 93,47.5C 93.9487,49.0931 95.1154,50.4264 96.5,51.5C 98.3209,55.4853 101.321,58.3186 105.5,60C 110.537,60.6631 115.537,60.4964 120.5,59.5C 105.43,64.3787 95.2629,59.0454 90,43.5C 89.5026,40.854 89.3359,38.1873 89.5,35.5 Z"/></g>
<g><path style="opacity:0.063" fill="#ebf7f2" d="M 103.5,40.5 C 105.083,42.6626 106.416,44.9959 107.5,47.5C 107.167,47.5 106.833,47.5 106.5,47.5C 104.688,45.5395 103.688,43.2061 103.5,40.5 Z"/></g>
<g><path style="opacity:0.09" fill="#e6f7ef" d="M 121.5,37.5 C 121.741,39.8984 121.074,41.8984 119.5,43.5C 119.595,41.2143 120.262,39.2143 121.5,37.5 Z"/></g>
<g><path style="opacity:0.271" fill="#dbf0e7" d="M 119.5,43.5 C 119.573,45.0269 118.906,46.0269 117.5,46.5C 117.427,44.9731 118.094,43.9731 119.5,43.5 Z"/></g>
<g><path style="opacity:0.345" fill="#dbf0e6" d="M 117.5,46.5 C 116.599,48.7271 114.933,49.7271 112.5,49.5C 113.899,48.1103 115.566,47.1103 117.5,46.5 Z"/></g>
<g><path style="opacity:1" fill="#06bf65" d="M 106.5,47.5 C 106.628,49.0898 107.295,50.4231 108.5,51.5C 110.5,50.1667 112.5,50.1667 114.5,51.5C 116.16,50.8284 117.493,49.8284 118.5,48.5C 122.136,46.6348 123.136,47.4681 121.5,51C 122.378,52.8001 123.045,54.6334 123.5,56.5C 122.306,57.2719 121.306,58.2719 120.5,59.5C 115.537,60.4964 110.537,60.6631 105.5,60C 101.321,58.3186 98.3209,55.4853 96.5,51.5C 96.528,49.4176 95.8613,47.5843 94.5,46C 94.8333,45.6667 95.1667,45.3333 95.5,45C 93.5188,44.3946 93.1854,43.3946 94.5,42C 91.9293,36.1454 91.9293,30.3121 94.5,24.5C 95.8903,26.2029 97.3903,26.8696 99,26.5C 99.0823,33.4833 100.416,40.1499 103,46.5C 104.011,47.3366 105.178,47.67 106.5,47.5 Z"/></g>
<g><path style="opacity:0.004" fill="#fefffe" d="M 59.5,51.5 C 60.8333,52.1667 60.8333,52.1667 59.5,51.5 Z"/></g>
<g><path style="opacity:0.055" fill="#e1f4eb" d="M 133.5,41.5 C 132.559,50.0829 128.225,56.0829 120.5,59.5C 121.306,58.2719 122.306,57.2719 123.5,56.5C 128.463,52.5456 131.797,47.5456 133.5,41.5 Z"/></g>
<g><path style="opacity:0.004" fill="#fefffe" d="M 119.5,68.5 C 120.833,69.1667 120.833,69.1667 119.5,68.5 Z"/></g>
<g><path style="opacity:0.082" fill="#e0f3ea" d="M 117.5,77.5 C 114.397,75.2963 111.063,74.9629 107.5,76.5C 109.891,73.3274 112.891,72.8274 116.5,75C 117.252,75.6708 117.586,76.5041 117.5,77.5 Z"/></g>
<g><path style="opacity:0.016" fill="#eaf7f1" d="M 117.5,77.5 C 118.833,77.5 119.5,78.1667 119.5,79.5C 118.5,79.1667 117.833,78.5 117.5,77.5 Z"/></g>
<g><path style="opacity:0.153" fill="#e8f5ef" d="M 107.5,76.5 C 107.5,76.8333 107.5,77.1667 107.5,77.5C 106.5,78.1667 105.5,78.8333 104.5,79.5C 104.5,77.5 105.5,76.5 107.5,76.5 Z"/></g>
<g><path style="opacity:1" fill="#06be65" d="M 115.5,91.5 C 113.359,88.9814 111.359,88.9814 109.5,91.5C 104.5,96.1667 99.5,100.833 94.5,105.5C 93.5,105.5 92.5,105.5 91.5,105.5C 91.5,104.5 91.5,103.5 91.5,102.5C 90.5,102.5 89.5,102.5 88.5,102.5C 90.5628,109.614 88.7294,110.948 83,106.5C 82.805,105.181 82.9717,103.847 83.5,102.5C 90.8689,95.1329 97.8689,87.4662 104.5,79.5C 105.5,78.8333 106.5,78.1667 107.5,77.5C 109.782,76.6103 112.115,76.4436 114.5,77C 115.337,78.0113 115.67,79.1779 115.5,80.5C 116.5,80.5 117.5,80.5 118.5,80.5C 118.351,81.552 118.517,82.552 119,83.5C 121.176,85.8749 123.343,88.2082 125.5,90.5C 123.669,90.674 121.835,91.674 120,93.5C 118.67,92.4178 117.17,91.7512 115.5,91.5 Z"/></g>
<g><path style="opacity:0.016" fill="#ebf7f2" d="M 119.5,79.5 C 121.833,79.8333 123.167,81.1667 123.5,83.5C 121.833,82.5 120.5,81.1667 119.5,79.5 Z"/></g>
<g><path style="opacity:0.008" fill="#ecf8f2" d="M 123.5,83.5 C 124.833,83.5 125.5,84.1667 125.5,85.5C 124.5,85.1667 123.833,84.5 123.5,83.5 Z"/></g>
<g><path style="opacity:0.012" fill="#edf8f2" d="M 125.5,85.5 C 126.833,85.5 127.5,86.1667 127.5,87.5C 126.5,87.1667 125.833,86.5 125.5,85.5 Z"/></g>
<g><path style="opacity:0.012" fill="#edf8f2" d="M 127.5,87.5 C 128.833,87.5 129.5,88.1667 129.5,89.5C 128.5,89.1667 127.833,88.5 127.5,87.5 Z"/></g>
<g><path style="opacity:0.012" fill="#edf8f3" d="M 129.5,89.5 C 130.833,89.5 131.5,90.1667 131.5,91.5C 130.5,91.1667 129.833,90.5 129.5,89.5 Z"/></g>
<g><path style="opacity:0.008" fill="#edf8f3" d="M 131.5,91.5 C 132.833,91.5 133.5,92.1667 133.5,93.5C 132.5,93.1667 131.833,92.5 131.5,91.5 Z"/></g>
<g><path style="opacity:1" fill="#14be6a" d="M 117.5,77.5 C 117.833,78.5 118.5,79.1667 119.5,79.5C 120.5,81.1667 121.833,82.5 123.5,83.5C 123.833,84.5 124.5,85.1667 125.5,85.5C 125.833,86.5 126.5,87.1667 127.5,87.5C 127.833,88.5 128.5,89.1667 129.5,89.5C 129.833,90.5 130.5,91.1667 131.5,91.5C 131.833,92.5 132.5,93.1667 133.5,93.5C 133.833,94.5 134.5,95.1667 135.5,95.5C 135.833,96.5 136.5,97.1667 137.5,97.5C 137.833,98.5 138.5,99.1667 139.5,99.5C 139.833,100.5 140.5,101.167 141.5,101.5C 141.833,102.5 142.5,103.167 143.5,103.5C 143.833,104.5 144.5,105.167 145.5,105.5C 145.5,106.833 146.167,107.5 147.5,107.5C 147.833,108.5 148.5,109.167 149.5,109.5C 149.833,110.5 150.5,111.167 151.5,111.5C 151.833,112.5 152.5,113.167 153.5,113.5C 153.833,114.167 154.167,114.833 154.5,115.5C 152.323,115.414 150.323,114.747 148.5,113.5C 144.744,115.174 144.744,117.007 148.5,119C 147.11,121.994 148.11,123.994 151.5,125C 150.944,125.383 150.611,125.883 150.5,126.5C 138.5,115.167 126.833,103.5 115.5,91.5C 117.17,91.7512 118.67,92.4178 120,93.5C 121.835,91.674 123.669,90.674 125.5,90.5C 123.343,88.2082 121.176,85.8749 119,83.5C 118.517,82.552 118.351,81.552 118.5,80.5C 117.5,80.5 116.5,80.5 115.5,80.5C 115.67,79.1779 115.337,78.0113 114.5,77C 112.115,76.4436 109.782,76.6103 107.5,77.5C 107.5,77.1667 107.5,76.8333 107.5,76.5C 111.063,74.9629 114.397,75.2963 117.5,77.5 Z"/></g>
<g><path style="opacity:0.035" fill="#daf1e6" d="M 115.5,91.5 C 126.833,103.5 138.5,115.167 150.5,126.5C 151.141,127.482 151.807,128.482 152.5,129.5C 151.143,131.186 149.81,132.852 148.5,134.5C 139.167,143.167 130.167,152.167 121.5,161.5C 118.488,164.345 115.321,167.012 112,169.5C 109.348,168.015 107.182,166.015 105.5,163.5C 108.056,164.543 110.223,166.21 112,168.5C 125.014,155.653 137.847,142.653 150.5,129.5C 139.014,117.514 127.348,105.681 115.5,94C 113.783,92.4412 111.783,91.6079 109.5,91.5C 111.359,88.9814 113.359,88.9814 115.5,91.5 Z"/></g>
<g><path style="opacity:0.008" fill="#eef9f5" d="M 133.5,93.5 C 134.833,93.5 135.5,94.1667 135.5,95.5C 134.5,95.1667 133.833,94.5 133.5,93.5 Z"/></g>
<g><path style="opacity:0.012" fill="#edf8f3" d="M 135.5,95.5 C 136.833,95.5 137.5,96.1667 137.5,97.5C 136.5,97.1667 135.833,96.5 135.5,95.5 Z"/></g>
<g><path style="opacity:0.004" fill="#fefffe" d="M 44.5,96.5 C 45.8333,97.1667 45.8333,97.1667 44.5,96.5 Z"/></g>
<g><path style="opacity:0.004" fill="#fefffe" d="M 83.5,96.5 C 84.8333,97.1667 84.8333,97.1667 83.5,96.5 Z"/></g>
<g><path style="opacity:0.012" fill="#eff8f4" d="M 137.5,97.5 C 138.833,97.5 139.5,98.1667 139.5,99.5C 138.5,99.1667 137.833,98.5 137.5,97.5 Z"/></g>
<g><path style="opacity:0.008" fill="#f0f9f5" d="M 139.5,99.5 C 140.833,99.5 141.5,100.167 141.5,101.5C 140.5,101.167 139.833,100.5 139.5,99.5 Z"/></g>
<g><path style="opacity:0.004" fill="#eff9f4" d="M 141.5,101.5 C 142.833,101.5 143.5,102.167 143.5,103.5C 142.5,103.167 141.833,102.5 141.5,101.5 Z"/></g>
<g><path style="opacity:0.004" fill="#f1f9f6" d="M 143.5,103.5 C 144.833,103.5 145.5,104.167 145.5,105.5C 144.5,105.167 143.833,104.5 143.5,103.5 Z"/></g>
<g><path style="opacity:0.118" fill="#daf1e6" d="M 145.5,105.5 C 146.833,105.5 147.5,106.167 147.5,107.5C 147.5,106.167 146.833,105.5 145.5,105.5 Z"/></g>
<g><path style="opacity:0.008" fill="#f5fbf8" d="M 147.5,107.5 C 148.833,107.5 149.5,108.167 149.5,109.5C 148.5,109.167 147.833,108.5 147.5,107.5 Z"/></g>
<g><path style="opacity:0.004" fill="#fefffe" d="M 197.5,107.5 C 198.833,108.167 198.833,108.167 197.5,107.5 Z"/></g>
<g><path style="opacity:0.004" fill="#f4faf7" d="M 149.5,109.5 C 150.833,109.5 151.5,110.167 151.5,111.5C 150.5,111.167 149.833,110.5 149.5,109.5 Z"/></g>
<g><path style="opacity:0.604" fill="#a6ddc2" d="M 104.5,79.5 C 97.8689,87.4662 90.8689,95.1329 83.5,102.5C 76.1667,109.167 69.1667,116.167 62.5,123.5C 61.8333,123.5 61.5,123.833 61.5,124.5C 58.9078,126.036 57.9078,128.369 58.5,131.5C 58.1667,131.5 57.8333,131.5 57.5,131.5C 56.291,129.565 56.4577,127.565 58,125.5C 73.4159,109.917 88.9159,94.5832 104.5,79.5 Z"/></g>
<g><path style="opacity:0.004" fill="#f4fbf7" d="M 151.5,111.5 C 152.833,111.5 153.5,112.167 153.5,113.5C 152.5,113.167 151.833,112.5 151.5,111.5 Z"/></g>
<g><path style="opacity:0.004" fill="#fefffe" d="M 215.5,111.5 C 216.833,112.167 216.833,112.167 215.5,111.5 Z"/></g>
<g><path style="opacity:0.004" fill="#fefffe" d="M 20.5,113.5 C 21.8333,114.167 21.8333,114.167 20.5,113.5 Z"/></g>
<g><path style="opacity:0.004" fill="#fefffe" d="M 53.5,113.5 C 54.8333,114.167 54.8333,114.167 53.5,113.5 Z"/></g>
<g><path style="opacity:0.008" fill="#f3faf7" d="M 153.5,113.5 C 154.833,113.5 155.5,114.167 155.5,115.5C 155.167,115.5 154.833,115.5 154.5,115.5C 154.167,114.833 153.833,114.167 153.5,113.5 Z"/></g>
<g><path style="opacity:0.008" fill="#f4faf8" d="M 155.5,115.5 C 156.833,115.5 157.5,116.167 157.5,117.5C 156.5,117.167 155.833,116.5 155.5,115.5 Z"/></g>
<g><path style="opacity:1" fill="#11bf67" d="M 154.5,115.5 C 154.833,115.5 155.167,115.5 155.5,115.5C 155.833,116.5 156.5,117.167 157.5,117.5C 157.833,118.5 158.5,119.167 159.5,119.5C 159.525,122.179 160.858,123.512 163.5,123.5C 163.833,124.5 164.5,125.167 165.5,125.5C 166.323,127.455 166.49,129.455 166,131.5C 164.668,133.66 163.168,135.66 161.5,137.5C 160.5,137.833 159.833,138.5 159.5,139.5C 158.167,140.5 156.833,141.5 155.5,142.5C 154.265,142.279 153.265,141.612 152.5,140.5C 151.264,141.246 149.93,141.579 148.5,141.5C 147.918,139.002 147.918,136.669 148.5,134.5C 149.81,132.852 151.143,131.186 152.5,129.5C 151.807,128.482 151.141,127.482 150.5,126.5C 150.611,125.883 150.944,125.383 151.5,125C 148.11,123.994 147.11,121.994 148.5,119C 144.744,117.007 144.744,115.174 148.5,113.5C 150.323,114.747 152.323,115.414 154.5,115.5 Z"/></g>
<g><path style="opacity:0.004" fill="#f5fbf8" d="M 157.5,117.5 C 158.833,117.5 159.5,118.167 159.5,119.5C 158.5,119.167 157.833,118.5 157.5,117.5 Z"/></g>
<g><path style="opacity:0.004" fill="#fefffe" d="M 191.5,119.5 C 192.833,120.167 192.833,120.167 191.5,119.5 Z"/></g>
<g><path style="opacity:0.004" fill="#fefffe" d="M 59.5,120.5 C 60.8333,121.167 60.8333,121.167 59.5,120.5 Z"/></g>
<g><path style="opacity:0.004" fill="#fefffe" d="M 170.5,120.5 C 171.833,121.167 171.833,121.167 170.5,120.5 Z"/></g>
<g><path style="opacity:1" fill="#0abd67" d="M 83.5,102.5 C 82.9717,103.847 82.805,105.181 83,106.5C 88.7294,110.948 90.5628,109.614 88.5,102.5C 89.5,102.5 90.5,102.5 91.5,102.5C 91.5,103.5 91.5,104.5 91.5,105.5C 92.5,105.5 93.5,105.5 94.5,105.5C 87.5359,112.965 80.3692,120.298 73,127.5C 72.3333,128.833 72.3333,130.167 73,131.5C 75.0396,133.37 76.8729,135.37 78.5,137.5C 73.9503,138.155 70.9503,136.321 69.5,132C 69.8333,129.667 70.1667,127.333 70.5,125C 69.8095,123.933 69.3095,122.766 69,121.5C 67.984,122.634 67.3173,122.301 67,120.5C 65.871,122.141 64.371,123.141 62.5,123.5C 69.1667,116.167 76.1667,109.167 83.5,102.5 Z"/></g>
<g><path style="opacity:0.976" fill="#94dbb5" d="M 159.5,119.5 C 161.341,120.402 162.674,121.736 163.5,123.5C 160.858,123.512 159.525,122.179 159.5,119.5 Z"/></g>
<g><path style="opacity:0.008" fill="#f1faf5" d="M 163.5,123.5 C 164.833,123.5 165.5,124.167 165.5,125.5C 164.5,125.167 163.833,124.5 163.5,123.5 Z"/></g>
<g><path style="opacity:0.096" fill="#dcf2e8" d="M 109.5,91.5 C 109.631,92.2389 109.464,92.9056 109,93.5C 96.9858,105.347 85.1525,117.347 73.5,129.5C 83.8191,140.319 94.3191,150.986 105,161.5C 105.464,162.094 105.631,162.761 105.5,163.5C 102.167,160.5 98.8333,157.5 95.5,154.5C 90.1667,148.5 84.5,142.833 78.5,137.5C 76.8729,135.37 75.0396,133.37 73,131.5C 72.3333,130.167 72.3333,128.833 73,127.5C 80.3692,120.298 87.5359,112.965 94.5,105.5C 99.5,100.833 104.5,96.1667 109.5,91.5 Z"/></g>
<g><path style="opacity:0.094" fill="#e7f6ef" d="M 57.5,131.5 C 57.8333,131.5 58.1667,131.5 58.5,131.5C 60.1153,134.45 62.1153,137.116 64.5,139.5C 60.7264,138.062 58.3931,135.395 57.5,131.5 Z"/></g>
<g><path style="opacity:1" fill="#13be6c" d="M 61.5,124.5 C 60.962,126.117 60.6287,127.784 60.5,129.5C 63.766,129.433 65.266,131.099 65,134.5C 65.414,134.043 65.914,133.709 66.5,133.5C 67.4931,137.001 69.4931,139.834 72.5,142C 71.6634,143.011 71.33,144.178 71.5,145.5C 69.1667,143.5 66.8333,141.5 64.5,139.5C 62.1153,137.116 60.1153,134.45 58.5,131.5C 57.9078,128.369 58.9078,126.036 61.5,124.5 Z"/></g>
<g><path style="opacity:0.012" fill="#e8f7f0" d="M 165.5,125.5 C 166.117,125.611 166.617,125.944 167,126.5C 168.325,131.85 166.492,135.517 161.5,137.5C 163.168,135.66 164.668,133.66 166,131.5C 166.49,129.455 166.323,127.455 165.5,125.5 Z"/></g>
<g><path style="opacity:0.012" fill="#eaf7f1" d="M 161.5,137.5 C 161.5,138.833 160.833,139.5 159.5,139.5C 159.833,138.5 160.5,137.833 161.5,137.5 Z"/></g>
<g><path style="opacity:0.008" fill="#edf7f3" d="M 64.5,139.5 C 66.8333,141.5 69.1667,143.5 71.5,145.5C 74.5,149.167 77.8333,152.5 81.5,155.5C 81.8333,156.167 82.1667,156.833 82.5,157.5C 75.5,152.5 69.5,146.5 64.5,139.5 Z"/></g>
<g><path style="opacity:0.016" fill="#edf8f3" d="M 159.5,139.5 C 159.167,141.833 157.833,143.167 155.5,143.5C 155.5,143.167 155.5,142.833 155.5,142.5C 156.833,141.5 158.167,140.5 159.5,139.5 Z"/></g>
<g><path style="opacity:0.016" fill="#ebf6f1" d="M 155.5,143.5 C 155.5,144.833 154.833,145.5 153.5,145.5C 153.833,144.5 154.5,143.833 155.5,143.5 Z"/></g>
<g><path style="opacity:1" fill="#10be67" d="M 148.5,134.5 C 147.918,136.669 147.918,139.002 148.5,141.5C 149.93,141.579 151.264,141.246 152.5,140.5C 153.265,141.612 154.265,142.279 155.5,142.5C 155.5,142.833 155.5,143.167 155.5,143.5C 154.5,143.833 153.833,144.5 153.5,145.5C 149.833,148.5 146.5,151.833 143.5,155.5C 142.5,155.833 141.833,156.5 141.5,157.5C 139.167,159.167 137.167,161.167 135.5,163.5C 134.5,163.833 133.833,164.5 133.5,165.5C 131.5,167.167 129.5,168.833 127.5,170.5C 128.204,168.322 128.537,166.322 128.5,164.5C 127.817,161.539 126.984,161.205 126,163.5C 125.667,162.167 125.333,160.833 125,159.5C 124.184,160.823 123.017,161.489 121.5,161.5C 130.167,152.167 139.167,143.167 148.5,134.5 Z"/></g>
<g><path style="opacity:0.016" fill="#ecf7f2" d="M 153.5,145.5 C 151.167,149.833 147.833,153.167 143.5,155.5C 146.5,151.833 149.833,148.5 153.5,145.5 Z"/></g>
<g><path style="opacity:1" fill="#06bf65" d="M 78.5,137.5 C 84.5,142.833 90.1667,148.5 95.5,154.5C 95.0074,156.806 94.6741,159.139 94.5,161.5C 96.7224,161.178 98.5557,161.845 100,163.5C 100.563,164.725 100.23,165.725 99,166.5C 95.805,163.142 91.9717,160.809 87.5,159.5C 86.5488,156.048 84.5488,154.715 81.5,155.5C 77.8333,152.5 74.5,149.167 71.5,145.5C 71.33,144.178 71.6634,143.011 72.5,142C 69.4931,139.834 67.4931,137.001 66.5,133.5C 65.914,133.709 65.414,134.043 65,134.5C 65.266,131.099 63.766,129.433 60.5,129.5C 60.6287,127.784 60.962,126.117 61.5,124.5C 61.5,123.833 61.8333,123.5 62.5,123.5C 64.371,123.141 65.871,122.141 67,120.5C 67.3173,122.301 67.984,122.634 69,121.5C 69.3095,122.766 69.8095,123.933 70.5,125C 70.1667,127.333 69.8333,129.667 69.5,132C 70.9503,136.321 73.9503,138.155 78.5,137.5 Z"/></g>
<g><path style="opacity:0.004" fill="#fefffe" d="M 44.5,156.5 C 45.8333,157.167 45.8333,157.167 44.5,156.5 Z"/></g>
<g><path style="opacity:0.016" fill="#e7f5ee" d="M 143.5,155.5 C 143.5,156.833 142.833,157.5 141.5,157.5C 141.833,156.5 142.5,155.833 143.5,155.5 Z"/></g>
<g><path style="opacity:0.008" fill="#eaf7f1" d="M 82.5,157.5 C 83.5,157.833 84.1667,158.5 84.5,159.5C 83.1667,159.5 82.5,158.833 82.5,157.5 Z"/></g>
<g><path style="opacity:0.008" fill="#e9f6f0" d="M 84.5,159.5 C 90.1667,164.5 95.5,169.833 100.5,175.5C 94.1667,171.167 88.8333,165.833 84.5,159.5 Z"/></g>
<g><path style="opacity:0.024" fill="#e9f6ef" d="M 141.5,157.5 C 140.5,160.5 138.5,162.5 135.5,163.5C 137.167,161.167 139.167,159.167 141.5,157.5 Z"/></g>
<g><path style="opacity:0.02" fill="#e5f5ed" d="M 135.5,163.5 C 135.5,164.833 134.833,165.5 133.5,165.5C 133.833,164.5 134.5,163.833 135.5,163.5 Z"/></g>
<g><path style="opacity:1" fill="#10bf67" d="M 95.5,154.5 C 98.8333,157.5 102.167,160.5 105.5,163.5C 107.182,166.015 109.348,168.015 112,169.5C 115.321,167.012 118.488,164.345 121.5,161.5C 123.017,161.489 124.184,160.823 125,159.5C 125.333,160.833 125.667,162.167 126,163.5C 126.984,161.205 127.817,161.539 128.5,164.5C 128.537,166.322 128.204,168.322 127.5,170.5C 123.5,174.833 119.5,179.167 115.5,183.5C 113.167,184.833 110.833,184.833 108.5,183.5C 107.833,182.167 106.833,181.167 105.5,180.5C 104.167,178.5 102.5,176.833 100.5,175.5C 95.5,169.833 90.1667,164.5 84.5,159.5C 84.1667,158.5 83.5,157.833 82.5,157.5C 82.1667,156.833 81.8333,156.167 81.5,155.5C 84.5488,154.715 86.5488,156.048 87.5,159.5C 91.9717,160.809 95.805,163.142 99,166.5C 100.23,165.725 100.563,164.725 100,163.5C 98.5557,161.845 96.7224,161.178 94.5,161.5C 94.6741,159.139 95.0074,156.806 95.5,154.5 Z"/></g>
<g><path style="opacity:0.008" fill="#ebf6f1" d="M 100.5,175.5 C 102.5,176.833 104.167,178.5 105.5,180.5C 102.833,179.833 101.167,178.167 100.5,175.5 Z"/></g>
<g><path style="opacity:0.027" fill="#e7f5ee" d="M 133.5,165.5 C 128.5,172.5 122.5,178.5 115.5,183.5C 119.5,179.167 123.5,174.833 127.5,170.5C 129.5,168.833 131.5,167.167 133.5,165.5 Z"/></g>
<g><path style="opacity:0.004" fill="#edf7f3" d="M 105.5,180.5 C 106.833,181.167 107.833,182.167 108.5,183.5C 106.5,183.5 105.5,182.5 105.5,180.5 Z"/></g>
<g><path style="opacity:0.025" fill="#f0f9f5" d="M 108.5,183.5 C 110.833,184.833 113.167,184.833 115.5,183.5C 114.866,184.947 113.699,185.613 112,185.5C 110.301,185.613 109.134,184.947 108.5,183.5 Z"/></g>
<g><path style="opacity:0.011" fill="#f4faf7" d="M 70.5,187.5 C 63.8333,187.5 57.1667,187.5 50.5,187.5C 57.1667,184.833 63.8333,184.833 70.5,187.5 Z"/></g>
<g><path style="opacity:0.014" fill="#f3faf6" d="M 173.5,187.5 C 166.833,187.5 160.167,187.5 153.5,187.5C 160.157,184.892 166.824,184.892 173.5,187.5 Z"/></g>
<g><path style="opacity:0.02" fill="#d8f0e4" d="M 70.5,187.5 C 73.5184,187.335 76.5184,187.502 79.5,188C 80.4158,188.278 81.0825,188.778 81.5,189.5C 77.6125,189.354 73.9458,188.687 70.5,187.5 Z"/></g>
<g><path style="opacity:0.18" fill="#d5eee2" d="M 175.5,187.5 C 179.16,187.159 182.493,187.825 185.5,189.5C 181.922,189.451 178.589,188.785 175.5,187.5 Z"/></g>
<g><path style="opacity:0.455" fill="#cce9da" d="M 47.5,187.5 C 44.7814,188.913 41.7814,189.58 38.5,189.5C 41.1709,187.882 44.1709,187.215 47.5,187.5 Z"/></g>
<g><path style="opacity:0.529" fill="#c2e5d3" d="M 150.5,187.5 C 148.162,189.04 145.495,189.706 142.5,189.5C 144.838,187.96 147.505,187.294 150.5,187.5 Z"/></g>
<g><path style="opacity:1" fill="#16bf69" d="M 150.5,187.5 C 151.5,187.5 152.5,187.5 153.5,187.5C 160.167,187.5 166.833,187.5 173.5,187.5C 174.167,187.5 174.833,187.5 175.5,187.5C 178.589,188.785 181.922,189.451 185.5,189.5C 189.617,191.204 193.951,192.537 198.5,193.5C 200.153,193.66 201.486,194.326 202.5,195.5C 204.147,197.326 206.147,198.66 208.5,199.5C 211.998,203.181 214.998,207.181 217.5,211.5C 217.877,217.323 217.21,222.989 215.5,228.5C 213.833,229.833 212.167,231.167 210.5,232.5C 210.177,227.5 207.843,225.167 203.5,225.5C 206.757,221.528 207.257,217.195 205,212.5C 199.261,206.084 192.095,202.418 183.5,201.5C 182.833,201.5 182.167,201.5 181.5,201.5C 178.456,199.989 175.122,199.322 171.5,199.5C 158.181,197.548 145.181,199.214 132.5,204.5C 133.36,202.386 135.027,201.22 137.5,201C 135.029,198.669 135.362,196.503 138.5,194.5C 139.446,194.013 140.446,193.68 141.5,193.5C 143.211,194.581 144.711,195.915 146,197.5C 147.225,197.138 148.391,196.638 149.5,196C 147.896,194.763 146.229,193.597 144.5,192.5C 144.938,191.494 145.604,191.494 146.5,192.5C 148.776,191.787 151.109,191.287 153.5,191C 152.584,190.626 151.75,190.126 151,189.5C 146.914,190.449 142.747,191.116 138.5,191.5C 139.5,190.833 140.5,190.167 141.5,189.5C 141.833,189.5 142.167,189.5 142.5,189.5C 145.495,189.706 148.162,189.04 150.5,187.5 Z"/></g>
<g><path style="opacity:0.082" fill="#ddf1e8" d="M 81.5,189.5 C 84.4951,189.294 87.1617,189.96 89.5,191.5C 86.5718,191.435 83.9052,190.768 81.5,189.5 Z"/></g>
<g><path style="opacity:0.039" fill="#e5f4ec" d="M 141.5,189.5 C 140.5,190.167 139.5,190.833 138.5,191.5C 137.5,191.5 136.5,191.5 135.5,191.5C 137.102,189.926 139.102,189.259 141.5,189.5 Z"/></g>
<g><path style="opacity:0.094" fill="#d7efe3" d="M 185.5,189.5 C 190.289,189.654 194.622,190.987 198.5,193.5C 193.951,192.537 189.617,191.204 185.5,189.5 Z"/></g>
<g><path style="opacity:0.639" fill="#b3e3c8" d="M 37.5,189.5 C 35.7496,190.87 33.7496,191.87 31.5,192.5C 29.5648,193.15 27.5648,193.483 25.5,193.5C 29.2134,191.565 33.2134,190.232 37.5,189.5 Z"/></g>
<g><path style="opacity:0.8" fill="#9cdab7" d="M 135.5,191.5 C 133.383,193.655 130.716,194.655 127.5,194.5C 129.792,192.733 132.458,191.733 135.5,191.5 Z"/></g>
<g><path style="opacity:0.149" fill="#d3ede1" d="M 91.5,192.5 C 94.5418,192.733 97.2084,193.733 99.5,195.5C 96.4582,195.267 93.7916,194.267 91.5,192.5 Z"/></g>
<g><path style="opacity:1" fill="#18bf6a" d="M 31.5,192.5 C 30.4019,193.397 30.4019,194.23 31.5,195C 34.1104,195.147 36.4437,195.981 38.5,197.5C 39.1667,196.833 39.8333,196.167 40.5,195.5C 40.1086,196.891 40.9419,197.891 43,198.5C 50.0278,198.138 57.1945,197.138 64.5,195.5C 68.0425,196.958 71.2092,197.291 74,196.5C 74.3879,197.428 75.0546,198.095 76,198.5C 80.1615,195.834 84.6615,195.001 89.5,196C 88.9186,196.893 88.5852,197.893 88.5,199C 89.5617,200.841 90.5617,202.674 91.5,204.5C 89.5,204.167 87.5,203.833 85.5,203.5C 83.7857,202.262 81.7857,201.595 79.5,201.5C 76.3733,200.419 73.0399,199.753 69.5,199.5C 56.2383,197.323 43.2383,198.823 30.5,204C 28.4156,204.697 26.7489,205.864 25.5,207.5C 23.2459,208.415 21.2459,209.748 19.5,211.5C 19.33,210.178 19.6634,209.011 20.5,208C 18.5,207.667 16.5,207.333 14.5,207C 15.6956,206.346 15.6956,205.846 14.5,205.5C 13.5,206 12.5,206.5 11.5,207C 8.43044,211.629 7.0971,216.795 7.5,222.5C 6.84182,221.207 6.50848,219.707 6.5,218C 7.02503,214.459 7.6917,210.959 8.5,207.5C 10.2624,206.738 11.2624,205.404 11.5,203.5C 12.5,203.167 13.1667,202.5 13.5,201.5C 15.754,200.876 17.4206,199.543 18.5,197.5C 20.0269,197.573 21.0269,196.906 21.5,195.5C 22.5137,194.326 23.847,193.66 25.5,193.5C 27.5648,193.483 29.5648,193.15 31.5,192.5 Z"/></g>
<g><path style="opacity:0.051" fill="#def1e8" d="M 127.5,194.5 C 125.208,196.267 122.542,197.267 119.5,197.5C 121.792,195.733 124.458,194.733 127.5,194.5 Z"/></g>
<g><path style="opacity:0.49" fill="#c3e7d5" d="M 21.5,195.5 C 21.0269,196.906 20.0269,197.573 18.5,197.5C 18.9731,196.094 19.9731,195.427 21.5,195.5 Z"/></g>
<g><path style="opacity:1" fill="#1ebf6a" d="M 89.5,191.5 C 90.4916,191.328 91.1583,191.662 91.5,192.5C 93.7916,194.267 96.4582,195.267 99.5,195.5C 100.833,196.5 102.167,197.5 103.5,198.5C 102.5,198.5 101.5,198.5 100.5,198.5C 100.878,203.621 103.045,205.287 107,203.5C 107.617,204.449 107.451,205.282 106.5,206C 109.099,206.769 111.599,206.602 114,205.5C 114.925,206.047 115.758,206.713 116.5,207.5C 115.998,208.716 115.665,209.883 115.5,211C 111.752,211.093 108.086,211.26 104.5,211.5C 104.167,211.833 103.833,212.167 103.5,212.5C 105.743,213.474 108.076,213.808 110.5,213.5C 106.962,215.769 103.295,217.769 99.5,219.5C 96.1563,220.508 92.8229,221.508 89.5,222.5C 89.4701,221.503 89.9701,220.836 91,220.5C 101.187,218.23 101.687,215.23 92.5,211.5C 92.1367,213.911 93.1367,215.411 95.5,216C 94.9747,216.692 94.3081,217.192 93.5,217.5C 89.7929,214.904 85.7929,214.238 81.5,215.5C 81.8333,214.833 82.1667,214.167 82.5,213.5C 83.9303,212.463 85.597,211.796 87.5,211.5C 90.4245,211.54 93.0912,210.707 95.5,209C 96.6843,207.855 96.6843,206.688 95.5,205.5C 97.0257,206.105 98.0257,207.271 98.5,209C 99.635,209.749 100.635,209.583 101.5,208.5C 100.669,205.328 98.6686,203.662 95.5,203.5C 95.5,201.833 95.5,200.167 95.5,198.5C 94.5,198.5 93.5,198.5 92.5,198.5C 91.1989,196.328 90.1989,193.995 89.5,191.5 Z"/></g>
<g><path style="opacity:0.153" fill="#d3ede0" d="M 99.5,195.5 C 102.721,196.111 105.721,197.278 108.5,199C 110.81,199.497 113.143,199.663 115.5,199.5C 114.626,200.525 113.459,201.192 112,201.5C 109.105,200.591 106.272,199.591 103.5,198.5C 102.167,197.5 100.833,196.5 99.5,195.5 Z"/></g>
<g><path style="opacity:0.153" fill="#d8f0e4" d="M 202.5,195.5 C 205.292,195.622 207.292,196.956 208.5,199.5C 206.147,198.66 204.147,197.326 202.5,195.5 Z"/></g>
<g><path style="opacity:1" fill="#0dbe65" d="M 47.5,187.5 C 48.5,187.5 49.5,187.5 50.5,187.5C 57.1667,187.5 63.8333,187.5 70.5,187.5C 73.9458,188.687 77.6125,189.354 81.5,189.5C 83.9052,190.768 86.5718,191.435 89.5,191.5C 90.1989,193.995 91.1989,196.328 92.5,198.5C 93.5,198.5 94.5,198.5 95.5,198.5C 95.5,200.167 95.5,201.833 95.5,203.5C 98.6686,203.662 100.669,205.328 101.5,208.5C 100.635,209.583 99.635,209.749 98.5,209C 98.0257,207.271 97.0257,206.105 95.5,205.5C 94.8333,205.5 94.1667,205.5 93.5,205.5C 92.5084,205.672 91.8417,205.338 91.5,204.5C 90.5617,202.674 89.5617,200.841 88.5,199C 88.5852,197.893 88.9186,196.893 89.5,196C 84.6615,195.001 80.1615,195.834 76,198.5C 75.0546,198.095 74.3879,197.428 74,196.5C 71.2092,197.291 68.0425,196.958 64.5,195.5C 57.1945,197.138 50.0278,198.138 43,198.5C 40.9419,197.891 40.1086,196.891 40.5,195.5C 39.8333,196.167 39.1667,196.833 38.5,197.5C 36.4437,195.981 34.1104,195.147 31.5,195C 30.4019,194.23 30.4019,193.397 31.5,192.5C 33.7496,191.87 35.7496,190.87 37.5,189.5C 37.8333,189.5 38.1667,189.5 38.5,189.5C 41.7814,189.58 44.7814,188.913 47.5,187.5 Z"/></g>
<g><path style="opacity:0.412" fill="#c7ead8" d="M 18.5,197.5 C 17.4206,199.543 15.754,200.876 13.5,201.5C 14.5387,199.469 16.2054,198.136 18.5,197.5 Z"/></g>
<g><path style="opacity:0.192" fill="#e8f5ef" d="M 119.5,197.5 C 118.486,198.674 117.153,199.34 115.5,199.5C 116.287,197.896 117.62,197.229 119.5,197.5 Z"/></g>
<g><path style="opacity:0.012" fill="#ecf8f3" d="M 68.5,199.5 C 68.8333,199.5 69.1667,199.5 69.5,199.5C 73.0399,199.753 76.3733,200.419 79.5,201.5C 75.5115,201.884 71.8448,201.217 68.5,199.5 Z"/></g>
<g><path style="opacity:0.018" fill="#d0eee0" d="M 171.5,199.5 C 158.372,199.16 145.706,201.326 133.5,206C 132.328,206.419 131.328,207.085 130.5,208C 134.402,209.565 138.069,211.398 141.5,213.5C 136.693,212.231 132.027,210.564 127.5,208.5C 128.206,206.124 129.873,204.79 132.5,204.5C 145.181,199.214 158.181,197.548 171.5,199.5 Z"/></g>
<g><path style="opacity:0.018" fill="#edf9f3" d="M 171.5,199.5 C 175.122,199.322 178.456,199.989 181.5,201.5C 178.813,201.664 176.146,201.497 173.5,201C 172.584,200.722 171.918,200.222 171.5,199.5 Z"/></g>
<g><path style="opacity:1" fill="#0abf64" d="M 132.5,204.5 C 129.873,204.79 128.206,206.124 127.5,208.5C 127.821,210.048 128.821,210.715 130.5,210.5C 130.5,211.5 130.5,212.5 130.5,213.5C 134.754,213.725 138.42,215.391 141.5,218.5C 140.399,220.102 138.899,221.102 137,221.5C 134.116,220.62 131.449,219.286 129,217.5C 127.989,218.056 127.156,218.722 126.5,219.5C 121.137,217.481 115.803,215.481 110.5,213.5C 108.076,213.808 105.743,213.474 103.5,212.5C 103.833,212.167 104.167,211.833 104.5,211.5C 108.086,211.26 111.752,211.093 115.5,211C 115.665,209.883 115.998,208.716 116.5,207.5C 115.758,206.713 114.925,206.047 114,205.5C 111.599,206.602 109.099,206.769 106.5,206C 107.451,205.282 107.617,204.449 107,203.5C 103.045,205.287 100.878,203.621 100.5,198.5C 101.5,198.5 102.5,198.5 103.5,198.5C 106.272,199.591 109.105,200.591 112,201.5C 113.459,201.192 114.626,200.525 115.5,199.5C 117.153,199.34 118.486,198.674 119.5,197.5C 122.542,197.267 125.208,196.267 127.5,194.5C 130.716,194.655 133.383,193.655 135.5,191.5C 136.5,191.5 137.5,191.5 138.5,191.5C 142.747,191.116 146.914,190.449 151,189.5C 151.75,190.126 152.584,190.626 153.5,191C 151.109,191.287 148.776,191.787 146.5,192.5C 145.604,191.494 144.938,191.494 144.5,192.5C 146.229,193.597 147.896,194.763 149.5,196C 148.391,196.638 147.225,197.138 146,197.5C 144.711,195.915 143.211,194.581 141.5,193.5C 140.446,193.68 139.446,194.013 138.5,194.5C 135.362,196.503 135.029,198.669 137.5,201C 135.027,201.22 133.36,202.386 132.5,204.5 Z"/></g>
<g><path style="opacity:0.125" fill="#eaf7f1" d="M 13.5,201.5 C 13.1667,202.5 12.5,203.167 11.5,203.5C 11.5,202.167 12.1667,201.5 13.5,201.5 Z"/></g>
<g><path style="opacity:0.016" fill="#eef8f4" d="M 79.5,201.5 C 81.7857,201.595 83.7857,202.262 85.5,203.5C 82.9899,203.946 80.9899,203.28 79.5,201.5 Z"/></g>
<g><path style="opacity:0.008" fill="#ceeede" d="M 69.5,199.5 C 69.1667,199.5 68.8333,199.5 68.5,199.5C 53.4855,199.161 39.1522,201.828 25.5,207.5C 26.7489,205.864 28.4156,204.697 30.5,204C 43.2383,198.823 56.2383,197.323 69.5,199.5 Z"/></g>
<g><path style="opacity:0.008" fill="#f3faf7" d="M 85.5,203.5 C 87.5,203.833 89.5,204.167 91.5,204.5C 91.8417,205.338 92.5084,205.672 93.5,205.5C 94.625,206.652 94.625,207.652 93.5,208.5C 90.9741,206.546 88.3075,204.879 85.5,203.5 Z"/></g>
<g><path style="opacity:0.01" fill="#e4f5ed" d="M 183.5,201.5 C 192.095,202.418 199.261,206.084 205,212.5C 207.257,217.195 206.757,221.528 203.5,225.5C 202.833,225.5 202.167,225.5 201.5,225.5C 205.471,222.145 206.304,218.145 204,213.5C 198.667,207.833 192.167,204.333 184.5,203C 183.944,202.617 183.611,202.117 183.5,201.5 Z"/></g>
<g><path style="opacity:0.365" fill="#cdebdd" d="M 11.5,203.5 C 11.2624,205.404 10.2624,206.738 8.5,207.5C 8.73758,205.596 9.73758,204.262 11.5,203.5 Z"/></g>
<g><path style="opacity:0.102" fill="#bce8d0" d="M 93.5,205.5 C 94.1667,205.5 94.8333,205.5 95.5,205.5C 96.6843,206.688 96.6843,207.855 95.5,209C 93.0912,210.707 90.4245,211.54 87.5,211.5C 89.2504,210.13 91.2504,209.13 93.5,208.5C 94.625,207.652 94.625,206.652 93.5,205.5 Z"/></g>
<g><path style="opacity:0.075" fill="#eaf6f0" d="M 208.5,199.5 C 213.751,201.758 216.751,205.758 217.5,211.5C 214.998,207.181 211.998,203.181 208.5,199.5 Z"/></g>
<g><path style="opacity:0.016" fill="#e5f5ed" d="M 25.5,207.5 C 23.8333,209.833 21.8333,211.833 19.5,213.5C 19.5,212.833 19.5,212.167 19.5,211.5C 21.2459,209.748 23.2459,208.415 25.5,207.5 Z"/></g>
<g><path style="opacity:0.651" fill="#b4e2c7" d="M 82.5,213.5 C 82.1667,214.167 81.8333,214.833 81.5,215.5C 80.1667,215.5 78.8333,215.5 77.5,215.5C 78.7804,214.069 80.4471,213.402 82.5,213.5 Z"/></g>
<g><path style="opacity:0.039" fill="#d4eee1" d="M 141.5,213.5 C 148.988,215.867 156.322,218.534 163.5,221.5C 155.585,220.197 148.251,217.531 141.5,213.5 Z"/></g>
<g><path style="opacity:0.22" fill="#d0efe0" d="M 19.5,213.5 C 19.5,216.5 19.5,219.5 19.5,222.5C 17.9735,221.508 17.3068,220.008 17.5,218C 17.3068,215.992 17.9735,214.492 19.5,213.5 Z"/></g>
<g><path style="opacity:1" fill="#09be64" d="M 89.5,222.5 C 87.5,223.833 85.5,225.167 83.5,226.5C 75.6228,229.237 67.6228,231.57 59.5,233.5C 56.1362,234.211 53.8029,233.044 52.5,230C 48.912,227.854 46.7453,229.021 46,233.5C 44.6439,232.62 43.1439,232.286 41.5,232.5C 41.5,231.167 41.5,229.833 41.5,228.5C 43.1439,228.286 44.6439,228.62 46,229.5C 47.0386,228.756 47.5386,227.756 47.5,226.5C 47.5,226.167 47.5,225.833 47.5,225.5C 47.8333,225.5 48.1667,225.5 48.5,225.5C 58.851,223.718 68.5177,220.385 77.5,215.5C 78.8333,215.5 80.1667,215.5 81.5,215.5C 85.7929,214.238 89.7929,214.904 93.5,217.5C 94.3081,217.192 94.9747,216.692 95.5,216C 93.1367,215.411 92.1367,213.911 92.5,211.5C 101.687,215.23 101.187,218.23 91,220.5C 89.9701,220.836 89.4701,221.503 89.5,222.5 Z"/></g>
<g><path style="opacity:0.137" fill="#d9f1e5" d="M 99.5,219.5 C 98.0975,220.931 96.4308,222.098 94.5,223C 91.0233,224.658 87.3566,225.825 83.5,226.5C 85.5,225.167 87.5,223.833 89.5,222.5C 92.8229,221.508 96.1563,220.508 99.5,219.5 Z"/></g>
<g><path style="opacity:0.024" fill="#daf0e5" d="M 163.5,221.5 C 171.082,222.98 178.416,224.98 185.5,227.5C 184.833,227.5 184.167,227.5 183.5,227.5C 178.468,226.659 173.468,225.659 168.5,224.5C 166.739,223.687 165.072,222.687 163.5,221.5 Z"/></g>
<g><path style="opacity:0.718" fill="#b9e4cc" d="M 77.5,215.5 C 68.5177,220.385 58.851,223.718 48.5,225.5C 57.9984,221.778 67.6651,218.445 77.5,215.5 Z"/></g>
<g><path style="opacity:0.043" fill="#e5f6ed" d="M 110.5,213.5 C 115.803,215.481 121.137,217.481 126.5,219.5C 128.703,221.1 131.036,222.433 133.5,223.5C 125.992,221.417 118.659,218.751 111.5,215.5C 107.667,217.421 103.667,218.754 99.5,219.5C 103.295,217.769 106.962,215.769 110.5,213.5 Z"/></g>
<g><path style="opacity:1" fill="#16be69" d="M 127.5,208.5 C 132.027,210.564 136.693,212.231 141.5,213.5C 148.251,217.531 155.585,220.197 163.5,221.5C 165.072,222.687 166.739,223.687 168.5,224.5C 166.473,224.338 164.473,224.505 162.5,225C 165.641,225.631 166.641,227.298 165.5,230C 167.792,231.29 169.792,232.957 171.5,235C 174.228,234.798 176.895,234.964 179.5,235.5C 180.425,236.357 181.092,237.357 181.5,238.5C 179.139,238.326 176.806,237.993 174.5,237.5C 174.167,237.5 173.833,237.5 173.5,237.5C 165.019,234.541 156.352,231.875 147.5,229.5C 146.22,228.069 144.553,227.402 142.5,227.5C 139.912,225.408 136.912,224.075 133.5,223.5C 131.036,222.433 128.703,221.1 126.5,219.5C 127.156,218.722 127.989,218.056 129,217.5C 131.449,219.286 134.116,220.62 137,221.5C 138.899,221.102 140.399,220.102 141.5,218.5C 138.42,215.391 134.754,213.725 130.5,213.5C 130.5,212.5 130.5,211.5 130.5,210.5C 128.821,210.715 127.821,210.048 127.5,208.5 Z"/></g>
<g><path style="opacity:0.016" fill="#dff2e9" d="M 217.5,211.5 C 218.972,213.117 219.639,215.117 219.5,217.5C 219.318,220.226 218.818,222.893 218,225.5C 217.623,226.942 216.79,227.942 215.5,228.5C 217.21,222.989 217.877,217.323 217.5,211.5 Z"/></g>
<g><path style="opacity:0.055" fill="#e8f6ef" d="M 133.5,223.5 C 136.912,224.075 139.912,225.408 142.5,227.5C 141.127,227.657 139.793,227.49 138.5,227C 136.569,226.098 134.903,224.931 133.5,223.5 Z"/></g>
<g><path style="opacity:0.114" fill="#c0e7d3" d="M 19.5,222.5 C 25.0231,226.953 31.3564,228.62 38.5,227.5C 38.8333,227.5 39.1667,227.5 39.5,227.5C 32.9335,229.335 26.6001,228.502 20.5,225C 19.7476,224.329 19.4142,223.496 19.5,222.5 Z"/></g>
<g><path style="opacity:0.282" fill="#daf1e6" d="M 47.5,225.5 C 47.5,225.833 47.5,226.167 47.5,226.5C 44.8333,226.833 42.1667,227.167 39.5,227.5C 39.1667,227.5 38.8333,227.5 38.5,227.5C 41.2186,226.087 44.2186,225.42 47.5,225.5 Z"/></g>
<g><path style="opacity:0.184" fill="#d2efe2" d="M 8.5,207.5 C 7.6917,210.959 7.02503,214.459 6.5,218C 6.50848,219.707 6.84182,221.207 7.5,222.5C 7.75526,225.016 8.58859,227.35 10,229.5C 12.7291,232.399 15.5624,235.066 18.5,237.5C 9.93095,234.058 5.26428,227.558 4.5,218C 4.90873,214.04 6.24207,210.54 8.5,207.5 Z"/></g>
<g><path style="opacity:0.013" fill="#f5fbf8" d="M 142.5,227.5 C 144.553,227.402 146.22,228.069 147.5,229.5C 145.302,229.88 143.635,229.213 142.5,227.5 Z"/></g>
<g><path style="opacity:1" fill="#12bf68" d="M 19.5,211.5 C 19.5,212.167 19.5,212.833 19.5,213.5C 17.9735,214.492 17.3068,215.992 17.5,218C 17.3068,220.008 17.9735,221.508 19.5,222.5C 19.4142,223.496 19.7476,224.329 20.5,225C 26.6001,228.502 32.9335,229.335 39.5,227.5C 42.1667,227.167 44.8333,226.833 47.5,226.5C 47.5386,227.756 47.0386,228.756 46,229.5C 44.6439,228.62 43.1439,228.286 41.5,228.5C 41.5,229.833 41.5,231.167 41.5,232.5C 43.1439,232.286 44.6439,232.62 46,233.5C 46.7453,229.021 48.912,227.854 52.5,230C 53.8029,233.044 56.1362,234.211 59.5,233.5C 53.5518,235.624 47.5518,237.624 41.5,239.5C 40.8333,239.5 40.1667,239.5 39.5,239.5C 35.1667,239.5 30.8333,239.5 26.5,239.5C 25.5,239.5 24.5,239.5 23.5,239.5C 22.2196,238.069 20.5529,237.402 18.5,237.5C 15.5624,235.066 12.7291,232.399 10,229.5C 8.58859,227.35 7.75526,225.016 7.5,222.5C 7.0971,216.795 8.43044,211.629 11.5,207C 12.5,206.5 13.5,206 14.5,205.5C 15.6956,205.846 15.6956,206.346 14.5,207C 16.5,207.333 18.5,207.667 20.5,208C 19.6634,209.011 19.33,210.178 19.5,211.5 Z"/></g>
<g><path style="opacity:1" fill="#0ebf66" d="M 168.5,224.5 C 173.468,225.659 178.468,226.659 183.5,227.5C 187.981,228.648 192.648,228.815 197.5,228C 199.066,227.392 200.4,226.558 201.5,225.5C 202.167,225.5 202.833,225.5 203.5,225.5C 207.843,225.167 210.177,227.5 210.5,232.5C 209.833,233.5 209.167,234.5 208.5,235.5C 204.851,237.171 201.184,238.504 197.5,239.5C 193.167,239.5 188.833,239.5 184.5,239.5C 183.5,239.5 182.5,239.5 181.5,239.5C 181.5,239.167 181.5,238.833 181.5,238.5C 181.092,237.357 180.425,236.357 179.5,235.5C 176.895,234.964 174.228,234.798 171.5,235C 169.792,232.957 167.792,231.29 165.5,230C 166.641,227.298 165.641,225.631 162.5,225C 164.473,224.505 166.473,224.338 168.5,224.5 Z"/></g>
<g><path style="opacity:0.416" fill="#a5dcc1" d="M 201.5,225.5 C 200.4,226.558 199.066,227.392 197.5,228C 192.648,228.815 187.981,228.648 183.5,227.5C 184.167,227.5 184.833,227.5 185.5,227.5C 191.004,227.85 196.337,227.183 201.5,225.5 Z"/></g>
<g><path style="opacity:0.039" fill="#e0f4ea" d="M 83.5,226.5 C 70.2712,232.98 56.2712,237.313 41.5,239.5C 47.5518,237.624 53.5518,235.624 59.5,233.5C 67.6228,231.57 75.6228,229.237 83.5,226.5 Z"/></g>
<g><path style="opacity:0.063" fill="#dbf1e6" d="M 215.5,228.5 C 214.167,231.833 211.833,234.167 208.5,235.5C 209.167,234.5 209.833,233.5 210.5,232.5C 212.167,231.167 213.833,229.833 215.5,228.5 Z"/></g>
<g><path style="opacity:0.007" fill="#eef8f3" d="M 147.5,229.5 C 156.352,231.875 165.019,234.541 173.5,237.5C 164.631,236.328 155.964,233.661 147.5,229.5 Z"/></g>
<g><path style="opacity:0.078" fill="#eef8f3" d="M 18.5,237.5 C 20.5529,237.402 22.2196,238.069 23.5,239.5C 21.4471,239.598 19.7804,238.931 18.5,237.5 Z"/></g>
<g><path style="opacity:0.027" fill="#eef9f3" d="M 174.5,237.5 C 176.806,237.993 179.139,238.326 181.5,238.5C 181.5,238.833 181.5,239.167 181.5,239.5C 178.772,239.829 176.438,239.163 174.5,237.5 Z"/></g>
<g><path style="opacity:0.024" fill="#d8f1e5" d="M 208.5,235.5 C 205.631,238.758 201.964,240.091 197.5,239.5C 201.184,238.504 204.851,237.171 208.5,235.5 Z"/></g>
<g><path style="opacity:0.014" fill="#f7fcfa" d="M 26.5,239.5 C 30.8333,239.5 35.1667,239.5 39.5,239.5C 35.8064,241.412 31.8064,241.912 27.5,241C 26.944,240.617 26.6107,240.117 26.5,239.5 Z"/></g>
<g><path style="opacity:0.004" fill="#fefffe" d="M 65.5,240.5 C 66.8333,241.167 66.8333,241.167 65.5,240.5 Z"/></g>
<g><path style="opacity:0.022" fill="#eff9f5" d="M 184.5,239.5 C 188.833,239.5 193.167,239.5 197.5,239.5C 195.538,241.017 193.205,241.684 190.5,241.5C 188.833,241.333 187.167,241.167 185.5,241C 184.944,240.617 184.611,240.117 184.5,239.5 Z"/></g>
</svg>
